<svg xmlns="http://www.w3.org/2000/svg" viewBox="0 0 108 108" width="108" height="108">
  <defs>
    <linearGradient id="sphere-bg" x1="20" y1="20" x2="88" y2="88" gradientUnits="userSpaceOnUse">
      <stop offset="0%" stop-color="#060E22"/>
      <stop offset="65%" stop-color="#0E1535"/>
      <stop offset="100%" stop-color="#300F58"/>
    </linearGradient>
    <clipPath id="circle-clip">
      <circle cx="54" cy="54" r="48"/>
    </clipPath>
  </defs>
  <circle cx="54" cy="54" r="48" fill="url(#sphere-bg)"/>
  <!-- depth layer 4 -->
  <g clip-path="url(#circle-clip)" transform="translate(2.1,2.1) scale(0.52)" transform-origin="54 54" opacity="0.25">
    <path d="M54,6 A48,48 0 0,1 54,102" stroke="#1A0530" stroke-width="5.1" fill="none" stroke-linecap="round"/>
    <path d="M54,6 A48,48 0 0,0 54,102" stroke="#1A0530" stroke-width="5.1" fill="none" stroke-linecap="round"/>
    <path d="M23,54 A31,31 0 0,1 85,54" stroke="#1A0530" stroke-width="5.1" fill="none" stroke-linecap="round"/>
    <path d="M23,54 A31,31 0 0,0 85,54" stroke="#1A0530" stroke-width="5.1" fill="none" stroke-linecap="round"/>
    <path d="M54,40 A14,14 0 0,1 54,68" stroke="#1A0530" stroke-width="5.1" fill="none" stroke-linecap="round"/>
    <path d="M54,40 A14,14 0 0,0 54,68" stroke="#1A0530" stroke-width="5.1" fill="none" stroke-linecap="round"/>
  </g>
  <!-- depth layer 2 -->
  <g clip-path="url(#circle-clip)" opacity="0.55">
    <g transform="translate(0.78,0.78) scale(0.52)" transform-origin="54 54">
      <path d="M54,6 A48,48 0 0,1 54,102" stroke="#7B2FBE" stroke-width="5.1" fill="none" stroke-linecap="round"/>
      <path d="M54,6 A48,48 0 0,0 54,102" stroke="#7B2FBE" stroke-width="5.1" fill="none" stroke-linecap="round"/>
      <path d="M23,54 A31,31 0 0,1 85,54" stroke="#7B2FBE" stroke-width="5.1" fill="none" stroke-linecap="round"/>
      <path d="M23,54 A31,31 0 0,0 85,54" stroke="#7B2FBE" stroke-width="5.1" fill="none" stroke-linecap="round"/>
      <path d="M54,40 A14,14 0 0,1 54,68" stroke="#7B2FBE" stroke-width="5.1" fill="none" stroke-linecap="round"/>
      <path d="M54,40 A14,14 0 0,0 54,68" stroke="#7B2FBE" stroke-width="5.1" fill="none" stroke-linecap="round"/>
      <line x1="54" y1="15" x2="54" y2="23" stroke="#7B2FBE" stroke-width="5.1" stroke-linecap="round"/>
      <line x1="54" y1="85" x2="54" y2="93" stroke="#7B2FBE" stroke-width="5.1" stroke-linecap="round"/>
      <line x1="31" y1="54" x2="39" y2="54" stroke="#7B2FBE" stroke-width="5.1" stroke-linecap="round"/>
      <line x1="69" y1="54" x2="77" y2="54" stroke="#7B2FBE" stroke-width="5.1" stroke-linecap="round"/>
    </g>
  </g>
  <!-- white front layer -->
  <g clip-path="url(#circle-clip)">
    <g transform="scale(0.52)" transform-origin="54 54">
      <path d="M54,6 A48,48 0 0,1 54,102" stroke="#FFFFFF" stroke-width="5.1" fill="none" stroke-linecap="round"/>
      <path d="M54,6 A48,48 0 0,0 54,102" stroke="#FFFFFF" stroke-width="5.1" fill="none" stroke-linecap="round"/>
      <path d="M23,54 A31,31 0 0,1 85,54" stroke="#FFFFFF" stroke-width="5.1" fill="none" stroke-linecap="round"/>
      <path d="M23,54 A31,31 0 0,0 85,54" stroke="#FFFFFF" stroke-width="5.1" fill="none" stroke-linecap="round"/>
      <path d="M54,40 A14,14 0 0,1 54,68" stroke="#FFFFFF" stroke-width="5.1" fill="none" stroke-linecap="round"/>
      <path d="M54,40 A14,14 0 0,0 54,68" stroke="#FFFFFF" stroke-width="5.1" fill="none" stroke-linecap="round"/>
      <line x1="54" y1="15" x2="54" y2="23" stroke="#FFFFFF" stroke-width="5.1" stroke-linecap="round"/>
      <line x1="54" y1="85" x2="54" y2="93" stroke="#FFFFFF" stroke-width="5.1" stroke-linecap="round"/>
      <line x1="31" y1="54" x2="39" y2="54" stroke="#FFFFFF" stroke-width="5.1" stroke-linecap="round"/>
      <line x1="69" y1="54" x2="77" y2="54" stroke="#FFFFFF" stroke-width="5.1" stroke-linecap="round"/>
      <circle cx="54" cy="54" r="3" fill="#FFFFFF"/>
    </g>
  </g>
</svg>
